<svg width="47" height="47" viewBox="0 0 47 47" fill="none" xmlns="http://www.w3.org/2000/svg">
<g id="&#208;&#186;&#208;&#189;&#208;&#190;&#208;&#191;&#208;&#186;&#208;&#176; &#208;&#186;&#208;&#176;&#208;&#187;&#208;&#181;&#208;&#189;&#208;&#180;&#208;&#176;&#209;&#128;&#209;&#140;">
<path id="Vector" d="M32.6797 13.9531C32.6797 14.1551 32.5145 14.3203 32.3125 14.3203H29.7422C29.5402 14.3203 29.375 14.1551 29.375 13.9531V11.75H17.625V13.9531C17.625 14.1551 17.4598 14.3203 17.2578 14.3203H14.6875C14.4855 14.3203 14.3203 14.1551 14.3203 13.9531V11.75H8.44531V17.9922H38.5547V11.75H32.6797V13.9531Z" fill="#5D5E8C"/>
<path id="Vector_2" d="M40.3906 8.44531H32.6797V5.50781C32.6797 5.30586 32.5145 5.14062 32.3125 5.14062H29.7422C29.5402 5.14062 29.375 5.30586 29.375 5.50781V8.44531H17.625V5.50781C17.625 5.30586 17.4598 5.14062 17.2578 5.14062H14.6875C14.4855 5.14062 14.3203 5.30586 14.3203 5.50781V8.44531H6.60938C5.79697 8.44531 5.14062 9.10166 5.14062 9.91406V40.3906C5.14062 41.203 5.79697 41.8594 6.60938 41.8594H40.3906C41.203 41.8594 41.8594 41.203 41.8594 40.3906V9.91406C41.8594 9.10166 41.203 8.44531 40.3906 8.44531ZM38.5547 38.5547H8.44531V21.1133H38.5547V38.5547ZM38.5547 17.9922H8.44531V11.75H14.3203V13.9531C14.3203 14.1551 14.4855 14.3203 14.6875 14.3203H17.2578C17.4598 14.3203 17.625 14.1551 17.625 13.9531V11.75H29.375V13.9531C29.375 14.1551 29.5402 14.3203 29.7422 14.3203H32.3125C32.5145 14.3203 32.6797 14.1551 32.6797 13.9531V11.75H38.5547V17.9922Z" fill="#030823"/>
</g>
</svg>
