<svg width="35" height="35" viewBox="0 0 35 35" fill="none" xmlns="http://www.w3.org/2000/svg">
<g id="bxs:left-arrow">
<path id="Vector" d="M6.4619 18.6987L25.4202 31.8237C25.639 31.9751 25.895 32.0637 26.1606 32.08C26.4262 32.0964 26.6911 32.0397 26.9268 31.9163C27.1625 31.7928 27.3599 31.6072 27.4976 31.3796C27.6354 31.152 27.7083 30.891 27.7084 30.625V4.37495C27.7085 4.10877 27.6359 3.84762 27.4982 3.6198C27.3605 3.39198 27.1632 3.20618 26.9274 3.08253C26.6917 2.95889 26.4266 2.90212 26.161 2.91837C25.8953 2.93463 25.6391 3.02328 25.4202 3.17474L6.4619 16.2997C6.26875 16.4345 6.11102 16.614 6.0021 16.8228C5.89318 17.0316 5.8363 17.2637 5.8363 17.4992C5.8363 17.7348 5.89318 17.9668 6.0021 18.1756C6.11102 18.3845 6.26875 18.5639 6.4619 18.6987Z" fill="#030823"/>
</g>
</svg>
