<svg width="44" height="29" viewBox="0 0 44 29" fill="none" xmlns="http://www.w3.org/2000/svg">
<path d="M13.5386 1.28944C11.8023 1.28922 10.083 1.63076 8.47885 2.29456C6.87469 2.95835 5.41709 3.9314 4.1893 5.15814C2.9615 6.38489 1.98755 7.84129 1.32306 9.44419C0.658568 11.0471 0.316559 12.7651 0.316559 14.5001C0.317024 17.0107 1.03344 19.4693 2.3819 21.5877C3.73035 23.7061 5.655 25.3967 7.93039 26.4615C10.2058 27.5262 12.7377 27.921 15.2295 27.5995C17.7213 27.2781 20.0699 26.2537 22.0001 24.6465C23.9302 26.2546 26.2791 27.2797 28.7714 27.6017C31.2637 27.9236 33.7962 27.529 36.0721 26.4642C38.348 25.3994 40.2731 23.7084 41.6217 21.5894C42.9703 19.4704 43.6866 17.0113 43.6866 14.5001C43.6866 11.9889 42.9703 9.52968 41.6217 7.41071C40.2731 5.29173 38.348 3.60074 36.0721 2.53591C33.7962 1.47108 31.2637 1.07652 28.7714 1.39846C26.2791 1.7204 23.9302 2.74551 22.0001 4.35366C19.6279 2.36973 16.6319 1.28476 13.5386 1.28944ZM30.4616 4.67158C33.0697 4.67382 35.5703 5.70998 37.4146 7.55264C39.259 9.39531 40.2963 11.8939 40.299 14.5001C40.2968 17.1065 39.2596 19.6055 37.4152 21.4486C35.5709 23.2916 33.07 24.328 30.4616 24.3302C28.1296 24.3302 26.0142 23.4678 24.327 22.1099C25.9069 19.8861 26.7572 17.2272 26.7606 14.5001C26.7572 11.7729 25.9069 9.114 24.327 6.89026C26.0142 5.53064 28.1296 4.66989 30.4616 4.66989V4.67158Z" fill="#F4F6FF"/>
</svg>
