<svg width="56" height="34" viewBox="0 0 56 34" fill="none" xmlns="http://www.w3.org/2000/svg">
<g id="mastercard" clip-path="url(#clip0_1153_207)">
<path id="Vector" d="M2.60574 0.23394C1.1671 0.23394 0 1.34263 0 2.71059V31.1831C0 32.5508 1.16726 33.6597 2.60574 33.6597H53.3943C54.833 33.6597 56.0001 32.551 56.0001 31.1831V2.71054C56.0001 1.34279 54.8328 0.233887 53.3943 0.233887H2.60568L2.60574 0.23394ZM18.3627 4.25749C21.5593 4.25749 24.495 5.3145 26.7995 7.08011C24.8606 8.72899 23.4145 10.8953 22.701 13.3508H23.8193C24.4778 11.3251 25.6742 9.52163 27.251 8.0914C28.8279 9.52163 30.0241 11.3251 30.6827 13.3508H31.8185C31.0951 10.9083 29.647 8.75486 27.7095 7.11673C30.0184 5.32871 32.9657 4.25744 36.176 4.25744C43.5843 4.25744 49.5897 9.96601 49.5897 17.0084C49.5897 24.0507 43.5843 29.7593 36.176 29.7593C32.9123 29.7593 29.9197 28.6521 27.594 26.8102C29.6744 25.09 31.2081 22.7839 31.9095 20.1604H30.8157C30.1929 22.3623 28.9394 24.3207 27.2509 25.8522C25.5625 24.3207 24.3108 22.3623 23.6879 20.1604H22.6467C23.3522 22.7458 24.8659 25.0197 26.9149 26.7238C24.5935 28.5428 21.6126 29.6362 18.3627 29.6362C10.9544 29.6362 4.949 23.9551 4.949 16.9468C4.949 9.9386 10.9544 4.25749 18.3627 4.25749ZM35.1697 13.221C33.558 13.221 31.99 14.5603 31.99 17.0749C31.99 18.7424 32.8369 19.8426 34.503 19.8426C34.9741 19.8428 35.7245 19.6597 35.7245 19.6597L35.973 18.2027C35.973 18.2027 35.2881 18.532 34.818 18.532C33.8276 18.532 33.4303 17.808 33.4303 17.03C33.4303 15.4517 34.2824 14.5832 35.231 14.5832C35.9424 14.5832 36.5137 14.9658 36.5137 14.9658L36.7413 13.5487C36.7413 13.5487 35.8954 13.221 35.1697 13.221H35.1697ZM48.72 13.3441L47.3183 13.3474L47.0173 15.1006C47.0173 15.1006 46.4903 14.4203 45.6663 14.4203C44.385 14.4203 43.3177 15.8669 43.3177 17.5307C43.3177 18.6046 43.8857 19.658 45.0503 19.658C45.8879 19.658 46.3523 19.1108 46.3523 19.1108L46.291 19.5782H47.6525L48.72 13.3441ZM8.57147 13.3624L7.455 19.6114H8.80074L9.65126 14.8994L9.77726 19.6114H10.7397L12.5353 14.8994L11.739 19.6114H13.1687L14.2713 13.3624H12.0593L10.682 17.1963L10.6103 13.3625H8.57153L8.57147 13.3624ZM22.631 13.7683C22.6006 13.7973 21.8173 18.0906 21.8173 18.6134C21.8173 19.3877 22.2738 19.7335 22.9163 19.7279C23.3766 19.7242 23.7331 19.6143 23.898 19.5682C23.9153 19.5638 23.9487 19.5549 23.9487 19.5549L24.122 18.4372C24.0278 18.4372 23.889 18.4754 23.7667 18.4754C23.2871 18.4754 23.234 18.2329 23.2645 18.0529L23.6513 15.7726H24.381L24.5577 14.5367H23.87L24.01 13.7683H22.631ZM38.8973 14.397C37.958 14.397 37.2383 14.6914 37.2383 14.6914L37.0387 15.8391C37.0387 15.8391 37.6332 15.6045 38.5315 15.6045C39.0416 15.6045 39.4152 15.66 39.4152 16.0636C39.4152 16.3088 39.3697 16.3996 39.3697 16.3996C39.3697 16.3996 38.9664 16.3664 38.78 16.3664C37.5955 16.3664 36.351 16.8598 36.351 18.344C36.351 19.5135 37.168 19.7811 37.674 19.7811C38.6405 19.7811 39.0572 19.1709 39.0793 19.169L39.0337 19.678H40.2395L40.7785 16.0054C40.7787 14.4471 39.3822 14.397 38.8973 14.397V14.397ZM16.2785 14.4037C15.3358 14.4037 14.6125 14.6981 14.6125 14.6981L14.413 15.8458C14.413 15.8458 15.0094 15.6112 15.911 15.6112C16.423 15.6112 16.7983 15.6669 16.7983 16.0703C16.7983 16.3153 16.7527 16.4063 16.7527 16.4063C16.7527 16.4063 16.3482 16.373 16.1613 16.373C14.9722 16.373 13.7235 16.8656 13.7235 18.349C13.7235 19.5179 14.5421 19.7861 15.05 19.7861C16.02 19.7861 16.4382 19.1758 16.4605 19.174L16.415 19.683H17.626L18.1667 16.0121C18.1667 14.4546 16.7652 14.4036 16.2785 14.4036V14.4037ZM20.5555 14.4037C19.5432 14.4037 18.515 14.792 18.515 16.1185C18.515 17.6215 20.2283 17.4697 20.2283 18.1028C20.2283 18.5254 19.7501 18.5603 19.3813 18.5603C18.7429 18.5603 18.1688 18.3506 18.1667 18.3607L17.983 19.5083C18.016 19.5181 18.3715 19.6697 19.5195 19.6697C19.8278 19.6697 21.5897 19.7441 21.5897 17.9997C21.5897 16.3689 19.9587 16.6922 19.9587 16.037C19.9587 15.7108 20.2236 15.6079 20.7095 15.6079C20.9025 15.6079 21.6458 15.6661 21.6458 15.6661L21.8173 14.5068C21.8173 14.5069 21.3376 14.4037 20.5555 14.4037H20.5555ZM26.8835 14.4037C25.4768 14.4039 24.4353 15.8417 24.4353 17.4658C24.4353 19.3404 25.7402 19.7861 26.852 19.7861C27.8783 19.7861 28.3307 19.5682 28.3307 19.5682L28.5757 18.2891C28.5757 18.2891 27.795 18.6152 27.09 18.6152C25.5877 18.6152 25.851 17.5523 25.851 17.5523H28.6947C28.6947 17.5523 28.8785 16.6933 28.8785 16.3431C28.8785 15.4691 28.4196 14.4037 26.8835 14.4037H26.8835ZM31.9778 14.4585C31.344 14.4585 30.8735 15.2686 30.8735 15.2686L30.9995 14.5251H29.6835L28.7998 19.6581H30.254C30.6659 17.4661 30.7411 15.6863 31.724 16.0121C31.896 15.1637 32.063 14.8359 32.2507 14.4768C32.2507 14.4768 32.1625 14.4585 31.9777 14.4585H31.9778ZM43.7605 14.4585C43.1268 14.4585 42.6563 15.2686 42.6563 15.2686L42.7823 14.5251H41.4663L40.5825 19.6581H42.035C42.4471 17.4661 42.5242 15.6863 43.5067 16.0121C43.6791 15.1637 43.8459 14.8359 44.0335 14.4768C44.0335 14.4768 43.9453 14.4585 43.7605 14.4585H43.7605ZM26.8765 15.5613C27.6754 15.5613 27.5293 16.4185 27.5293 16.4878H25.956C25.956 16.3993 26.1049 15.5613 26.8765 15.5613H26.8765ZM45.8868 15.6611C46.3953 15.661 46.6568 15.9874 46.6568 16.7556C46.6568 17.4525 46.287 18.3839 45.521 18.3839C45.0126 18.3839 44.7737 17.9849 44.7737 17.3593C44.7737 16.3364 45.2661 15.6611 45.8867 15.6611H45.8868ZM38.899 17.4076C39.1064 17.4078 39.1493 17.427 39.1843 17.4359C39.1792 17.4351 39.1783 17.436 39.1983 17.4392C39.2245 17.6678 39.0529 18.7399 38.2235 18.7399C37.7958 18.7399 37.6863 18.4167 37.6863 18.2259C37.6863 17.854 37.89 17.4076 38.899 17.4076ZM16.2803 17.4126C16.5159 17.4128 16.5416 17.4379 16.5813 17.4442C16.6076 17.6727 16.4353 18.7432 15.603 18.7432C15.1736 18.7432 15.0623 18.4215 15.0623 18.2309C15.0623 17.8592 15.2672 17.4126 16.2803 17.4126Z" fill="#F4F6FF"/>
</g>
<defs>
<clipPath id="clip0_1153_207">
<rect width="56" height="33" fill="white" transform="translate(0 0.5)"/>
</clipPath>
</defs>
</svg>
