<svg width="35" height="35" viewBox="0 0 35 35" fill="none" xmlns="http://www.w3.org/2000/svg">
<g id="bxs:left-arrow">
<path id="Vector" d="M28.5382 16.3013L9.5799 3.1763C9.36111 3.02491 9.10508 2.93626 8.83952 2.91995C8.57397 2.90364 8.30901 2.96028 8.07334 3.08375C7.83766 3.20722 7.64026 3.39281 7.5025 3.62042C7.36474 3.84803 7.29186 4.10899 7.29177 4.37505L7.29177 30.625C7.29159 30.8912 7.36427 31.1524 7.50193 31.3802C7.63958 31.608 7.83697 31.7938 8.07269 31.9175C8.30841 32.0411 8.57347 32.0979 8.83916 32.0816C9.10484 32.0654 9.36101 31.9767 9.5799 31.8253L28.5382 18.7003C28.7314 18.5655 28.8891 18.386 28.998 18.1772C29.1069 17.9684 29.1638 17.7363 29.1638 17.5008C29.1638 17.2652 29.1069 17.0332 28.998 16.8244C28.8891 16.6155 28.7314 16.4361 28.5382 16.3013Z" fill="#030823"/>
</g>
</svg>
