<svg width="54" height="32" viewBox="0 0 54 32" fill="none" xmlns="http://www.w3.org/2000/svg">
<g id="visa">
<path id="Vector" d="M8.4375 0.193604C5.66156 0.193604 3.375 2.33538 3.375 4.93554V27.0646C3.375 29.6647 5.66156 31.8065 8.4375 31.8065H45.5625C48.3384 31.8065 50.625 29.6647 50.625 27.0646V4.93554C50.625 2.33538 48.3384 0.193604 45.5625 0.193604H8.4375ZM8.4375 3.35489H45.5625C46.5159 3.35489 47.25 4.04247 47.25 4.93554V27.0646C47.25 27.9576 46.5159 28.6452 45.5625 28.6452H8.4375C7.48406 28.6452 6.75 27.9576 6.75 27.0646V4.93554C6.75 4.04247 7.48406 3.35489 8.4375 3.35489ZM32.7476 10.2702C29.4975 10.2702 27.7914 11.7718 27.7914 13.6781C27.7914 17.1286 32.1114 16.6497 32.1114 18.42C32.1114 18.7251 31.8414 19.4111 30.0527 19.4111C28.2639 19.4111 27.0996 18.8183 27.0996 18.8183L26.5764 21.0945C26.5764 21.0945 27.6817 21.7346 29.9008 21.7346C32.1114 21.7346 35.2232 20.1413 35.2232 17.8304C35.2232 15.0548 30.8981 14.8715 30.8981 13.6338C30.8981 13.0016 31.4719 12.4958 33.0075 12.4958C34.0099 12.4958 35.1169 13.2387 35.1169 13.2387L35.6468 10.8203C35.6468 10.8203 34.1786 10.275 32.7442 10.275L32.7476 10.2702ZM18.8797 10.4678L16.0312 18.273C16.0312 18.273 15.8895 17.5965 15.8203 17.1855C14.2087 13.803 11.6016 12.5416 11.6016 12.5416L14.0822 21.3837H17.4572L22.1991 10.4678H18.8831H18.8797ZM23.4141 10.4678L21.5679 21.3837H24.6831L26.5275 10.4678H23.4141ZM40.1844 10.4678L35.1219 21.3837H38.1797L38.8125 19.8537H42.7157L43.0312 21.3837H45.8257L43.4531 10.4678H40.1828H40.1844ZM8.17256 10.5152C8.17256 10.5152 14.2425 12.2618 15.6617 16.5438L14.6104 11.6043C14.6104 11.6043 14.1463 10.5136 12.9229 10.5136H8.17425L8.17256 10.5152ZM41.3438 13.6291L42.2381 17.7293H39.7069L41.3438 13.6291Z" fill="#F4F6FF"/>
</g>
</svg>
